<svg t="1651459608988" class="icon" viewBox="0 0 1024 1024" version="1.1" xmlns="http://www.w3.org/2000/svg" p-id="2979" width="23" height="23"><path d="M880.6 348.2c-22.6 0-41 18.3-41 41v77.1c0 158.1-147 286.7-327.7 286.7S184.3 624.3 184.3 466.2v-77.1c0-22.6-18.3-41-41-41s-41 18.3-41 41v77.1C102.4 657 264.3 814.4 471 833v88.6H307.2c-22.5 0-41 18.4-41 41 0 22.5 18.4 41 41 41h409.6c22.5 0 41-18.4 41-41 0-22.5-18.4-41-41-41H553V833c206.7-18.6 368.6-176 368.6-366.8v-77.1c0-22.6-18.3-40.9-41-40.9z" p-id="2980" fill="red"></path><path d="M512 675.8c135.2 0 245.8-110.6 245.8-245.8V266.2C757.8 131 647.2 20.4 512 20.4S266.2 131.1 266.2 266.2V430c0 135.2 110.6 245.8 245.8 245.8z" p-id="2981" fill="red"></path></svg>