<svg t="1656487472404" class="icon" viewBox="0 0 1024 1024" version="1.1" xmlns="http://www.w3.org/2000/svg" p-id="2274" width="200" height="200"><path d="M345.791045 966.686567c-21.014925 0-38.208955-17.19403-38.208955-38.208955v-152.835821c0-21.014925 17.19403-38.208955 38.208955-38.208955s38.208955 17.19403 38.208955 38.208955v152.835821c0 21.014925-17.19403 38.208955-38.208955 38.208955zM534.925373 966.686567c-21.014925 0-38.208955-17.19403-38.208955-38.208955v-229.253731c0-21.014925 17.19403-38.208955 38.208955-38.208956s38.208955 17.19403 38.208955 38.208956v229.253731c0 21.014925-17.19403 38.208955-38.208955 38.208955zM724.059701 966.686567c-21.014925 0-38.208955-17.19403-38.208955-38.208955v-343.880597c0-21.014925 17.19403-38.208955 38.208955-38.208955s38.208955 17.19403 38.208956 38.208955v343.880597c0 21.014925-17.19403 38.208955-38.208956 38.208955zM880.716418 966.686567c-21.014925 0-38.208955-17.19403-38.208955-38.208955v-554.029851c0-21.014925 17.19403-38.208955 38.208955-38.208955s38.208955 17.19403 38.208955 38.208955v554.029851c0 21.014925-17.19403 38.208955-38.208955 38.208955zM150.925373 622.80597c-17.19403 0-26.746269 0-30.567164-1.910448-21.014925-1.910448-36.298507-21.014925-34.38806-42.02985 1.910448-21.014925 21.014925-36.298507 42.029851-34.38806 15.283582 1.910448 389.731343 30.567164 670.567164-420.298508 11.462687-17.19403 34.38806-22.925373 53.492537-11.462686 17.19403 11.462687 22.925373 34.38806 11.462687 53.492537C601.791045 588.41791 256 622.80597 150.925373 622.80597z" fill="#0a93ed" p-id="2275"></path><path d="M894.089552 256c-15.283582 0-30.567164-9.552239-36.298507-26.746269l-30.567164-89.791044-99.343284 34.388059c-19.104478 7.641791-42.029851-3.820896-47.761194-22.925373-7.641791-19.104478 3.820896-42.029851 22.925373-47.761194L838.686567 57.313433c9.552239-3.820896 21.014925-1.910448 28.656717 1.910448 9.552239 3.820896 15.283582 13.373134 19.104477 22.925373l42.029851 126.089552c7.641791 19.104478-3.820896 42.029851-24.835821 47.761194h-9.552239z" fill="#0a93ed" p-id="2276"></path></svg>