<svg t="1658555522993" class="icon" viewBox="0 0 1024 1024" version="1.1" xmlns="http://www.w3.org/2000/svg" p-id="2438" width="200" height="200"><path d="M745.9 695.5c-12.3 0-22.3-10-22.3-22.3V436c0-116.6-94.9-211.5-211.6-211.5-116.7 0-211.6 94.9-211.6 211.5v144.5c0 12.3-10 22.3-22.3 22.3s-22.3-10-22.3-22.3V436c0-68.1 26.7-132.3 75.2-180.8S443.8 180 511.9 180c68.2 0 132.4 26.7 180.9 75.2S768 367.9 768 436v237.2c0.2 12.3-9.8 22.3-22.1 22.3z" p-id="2439" fill="#1296db"></path><path d="M764.6 842H259.5c-52.6 0-95.5-42.8-95.5-95.4s42.8-95.4 95.5-95.4h386c12.3 0 22.3 10 22.3 22.3s-10 22.3-22.3 22.3h-386c-28.1 0-50.9 22.8-50.9 50.9s22.8 50.9 50.9 50.9h505.1c28.1 0 50.9-22.8 50.9-50.9s-22.8-50.9-50.9-50.9h-15.2c-12.3 0-22.3-10-22.3-22.3s10-22.3 22.3-22.3h15.2c52.6 0 95.5 42.8 95.5 95.4S817.2 842 764.6 842zM602.3 227.5c-12.3 0-22.3-10-22.3-22.3v-28.1c0-37.4-30.5-67.9-68-67.9s-68 30.5-68 67.9v28.1c0 12.3-10 22.3-22.3 22.3s-22.3-10-22.3-22.3v-28.1c0-62 50.5-112.4 112.5-112.4s112.5 50.4 112.5 112.4v28.1c0.1 12.3-9.8 22.3-22.1 22.3z" p-id="2440" fill="#1296db"></path><path d="M512 960.7c-68.9 0-125-56-125-124.9v-15.9c0-12.3 10-22.3 22.3-22.3s22.3 10 22.3 22.3v15.9c0 44.3 36.1 80.4 80.5 80.4s80.5-36.1 80.5-80.4v-15.9c0-12.3 10-22.3 22.3-22.3s22.3 10 22.3 22.3v15.9C637 904.7 581 960.7 512 960.7z" p-id="2441" fill="#1296db"></path></svg>