<svg t="1658129029012" class="icon" viewBox="0 0 1024 1024" version="1.1" xmlns="http://www.w3.org/2000/svg" p-id="2636" width="200" height="200"><path d="M981.25962 291.954992a476.085215 476.085215 0 0 0-110.062711-152.296077 511.919586 511.919586 0 0 0-160.828069-102.383917 546.474158 546.474158 0 0 0-396.73768 0 511.919586 511.919586 0 0 0-162.534468 102.383917A478.218213 478.218213 0 0 0 42.74038 291.954992a451.769035 451.769035 0 0 0-42.659966 187.277249 461.154227 461.154227 0 0 0 127.979897 316.110344l23.036381 196.662441a36.260971 36.260971 0 0 0 35.834371 31.994974 36.260971 36.260971 0 0 0 17.917185-4.692596l148.45668-85.319931a547.327357 547.327357 0 0 0 358.343711-13.651189 511.919586 511.919586 0 0 0 162.534468-102.383917A478.218213 478.218213 0 0 0 981.25962 666.936089a453.902033 453.902033 0 0 0 0-374.981097z m-691.091441 243.161803a55.031355 55.031355 0 1 1 55.031356-55.031355 55.031355 55.031355 0 0 1-53.324957 55.031355z m220.125422 0a55.031355 55.031355 0 1 1 55.031356-55.031355A55.031355 55.031355 0 0 1 512 535.116795z m220.125422 0a55.031355 55.031355 0 1 1 55.031356-55.031355 55.031355 55.031355 0 0 1-53.751557 55.031355z" fill="#ffffff" p-id="2637"></path></svg>