<svg t="1656488596276" class="icon" viewBox="0 0 1024 1024" version="1.1" xmlns="http://www.w3.org/2000/svg" p-id="8535" width="200" height="200"><path d="M409.6 128c113.152 0 204.8 93.056 204.8 208S522.752 544 409.6 544c-113.152 0-204.8-93.056-204.8-208S296.448 128 409.6 128z m0 98.816c-59.392 0-107.52 48.896-107.52 109.184s48.128 109.184 107.52 109.184c59.392 0 107.52-48.896 107.52-109.184S468.992 226.816 409.6 226.816z m0 376.64c136.704 0 409.6 68.224 409.6 203.712V960H0v-152.832C0 671.68 272.896 603.52 409.6 603.52z m0 91.328c-152.064 0-312.32 75.968-312.32 109.248v57.152h624.64v-57.152c0-33.28-160.256-109.248-312.32-109.248zM887.488 960v-168c0-115.456-133.12-197.248-276.288-214.464 24.832-3.008 74.368 0 94.592 0 136.704 0 318.208 78.976 318.208 214.464V960h-136.512zM576 501.12A191.872 191.872 0 0 0 702.08 320 191.872 191.872 0 0 0 576 138.88c19.712-7.04 40.96-10.88 63.04-10.88 104.448 0 188.992 85.888 188.992 192 0 106.048-84.544 192-188.992 192A186.24 186.24 0 0 1 576 501.12z" fill="#0a93ed" p-id="8536"></path></svg>