<svg t="1657869196076" class="icon" viewBox="0 0 1024 1024" version="1.1" xmlns="http://www.w3.org/2000/svg" p-id="2282" width="200" height="200"><path d="M863.4 493.3L744.2 344.2c-5.8-7.2-14.4-11.2-23.3-11.2-3.3 0-6.6 0.5-9.9 1.7-11.9 4.2-19.9 15.5-19.9 28.1v89.5H452.5c-32.9 0-59.6 26.7-59.6 59.6 0 32.9 26.7 59.6 59.6 59.6H691V661c0 12.7 8 23.9 19.9 28.1 3.2 1.1 6.6 1.7 9.9 1.7 8.9 0 17.5-4 23.3-11.2l119.3-149.1c8.8-10.8 8.8-26.3 0-37.2zM571.8 750.5H332.7c-32.7 0-59.2-26.7-59.2-59.6V333v-0.5c0-32.7 26.7-59.2 59.7-59.2h238.5c32.9 0 59.6-26.7 59.6-59.6 0-32.9-26.7-59.6-59.6-59.6H273.6c-65.9 0-119.3 53.4-119.3 119.3v477.1c0 65.9 53.4 119.3 119.3 119.3h298.2c32.9 0 59.6-26.7 59.6-59.6 0-33-26.7-59.7-59.6-59.7z m0 0" fill="#1296db" p-id="2283"></path></svg>