<svg t="1656487662540" class="icon" viewBox="0 0 1024 1024" version="1.1" xmlns="http://www.w3.org/2000/svg" p-id="3172" width="200" height="200"><path d="M947.2 921.6h-563.2c-42.3424 0-76.8-34.4576-76.8-76.8 0-2.4576 0.5632-60.928 47.3088-118.528 26.88-33.0752 63.5392-59.2896 108.9536-77.9264 54.8352-22.528 122.88-33.8944 202.1376-33.8944s147.2512 11.4176 202.1376 33.8944c45.4144 18.6368 82.0736 44.8512 108.9536 77.9264 46.7968 57.6 47.3088 116.0704 47.3088 118.528 0 42.3424-34.4576 76.8-76.8 76.8zM358.4 844.9536a25.6 25.6 0 0 0 25.6 25.4464h563.2a25.6 25.6 0 0 0 25.6-25.4464c-0.0512-1.792-1.6384-45.824-37.8368-88.7808-49.8688-59.2384-143.0016-90.5216-269.3632-90.5216s-219.4944 31.3344-269.3632 90.5216c-36.1984 43.008-37.7856 86.9888-37.8368 88.7808zM665.6 563.2c-112.9472 0-204.8-91.8528-204.8-204.8s91.8528-204.8 204.8-204.8 204.8 91.8528 204.8 204.8-91.8528 204.8-204.8 204.8z m0-358.4c-84.6848 0-153.6 68.9152-153.6 153.6s68.9152 153.6 153.6 153.6 153.6-68.9152 153.6-153.6-68.9152-153.6-153.6-153.6zM230.4 921.6h-153.6C34.4576 921.6 0 887.1424 0 844.8c0-1.8944 0.4096-47.4624 33.9456-92.16 19.3536-25.856 45.7728-46.2848 78.4896-60.8256 39.1168-17.408 87.4496-26.2144 143.616-26.2144 9.1648 0 18.2272 0.256 26.9824 0.7168a25.6 25.6 0 0 1-2.7136 51.1488 465.92 465.92 0 0 0-24.2176-0.6144c-199.3728 0-204.6464 121.8048-204.8 128.1536a25.6 25.6 0 0 0 25.6 25.4464h153.6a25.6 25.6 0 0 1 0 51.2zM256 614.4c-84.6848 0-153.6-68.9152-153.6-153.6s68.9152-153.6 153.6-153.6 153.6 68.9152 153.6 153.6-68.9152 153.6-153.6 153.6z m0-256c-56.4736 0-102.4 45.9264-102.4 102.4s45.9264 102.4 102.4 102.4 102.4-45.9264 102.4-102.4-45.9264-102.4-102.4-102.4z" p-id="3173" fill="#0a93ed"></path></svg>